<svg width="245" height="78" viewBox="0 0 245 78" fill="none" xmlns="http://www.w3.org/2000/svg">
<path d="M4.74018 20.2838L21.0517 18.8217C24.3004 18.5304 27.155 18.7648 29.6155 19.5247C32.0954 20.2829 34.0628 21.5576 35.5176 23.349C36.9724 25.1403 37.8254 27.4366 38.0765 30.2379C38.2857 32.5723 38.0843 34.5905 37.4721 36.2926C36.8599 37.9947 35.9111 39.4426 34.6259 40.6363C33.3601 41.8283 31.8425 42.837 30.0732 43.6623L27.1318 45.632L13.2422 46.8771L12.5221 39.4998L22.8517 38.5738C24.2718 38.4465 25.4261 38.0881 26.3145 37.4986C27.2029 36.9092 27.8396 36.1363 28.2245 35.1802C28.6271 34.2028 28.7726 33.0917 28.661 31.8466C28.5459 30.5627 28.2034 29.4757 27.6334 28.5855C27.0633 27.6954 26.2799 27.0498 25.2831 26.649C24.304 26.2269 23.1141 26.0786 21.7135 26.2042L14.9146 26.8136L18.0613 61.917L8.54863 62.7697L4.74018 20.2838ZM32.0676 60.6615L20.8334 42.6374L30.8687 41.7085L42.2121 59.3109L42.2514 59.7486L32.0676 60.6615Z" fill="#E50914"/>
<path d="M63.9612 23.593L54.8473 58.6837L44.6672 59.2402L58.1065 15.7856L64.5422 15.4339L63.9612 23.593ZM74.9735 57.5836L62.0598 23.6969L60.476 15.6561L66.9994 15.2995L85.1536 57.0271L74.9735 57.5836ZM73.6388 41.7539L74.0417 49.1257L51.8385 50.3394L51.4356 42.9676L73.6388 41.7539Z" fill="#E50914"/>
<path d="M101.352 56.5071L91.9793 56.6928L91.8916 49.3103L101.206 49.1257C103.335 49.0835 105.122 48.5597 106.567 47.5543C108.012 46.5294 109.096 45.0428 109.819 43.0945C110.542 41.1267 110.876 38.7465 110.82 35.9541L110.781 33.9916C110.74 31.8827 110.488 30.0318 110.027 28.4391C109.565 26.8268 108.903 25.4822 108.042 24.4053C107.181 23.3284 106.12 22.529 104.859 22.007C103.618 21.4846 102.197 21.2393 100.596 21.271L91.1053 21.4591L90.9585 14.0484L100.449 13.8603C103.339 13.8031 105.985 14.239 108.386 15.1682C110.808 16.097 112.905 17.4521 114.679 19.2338C116.473 21.015 117.872 23.1361 118.878 25.5971C119.884 28.0581 120.417 30.8118 120.478 33.8581L120.516 35.762C120.576 38.7887 120.152 41.5614 119.245 44.0798C118.337 46.5788 117.022 48.7537 115.301 50.6046C113.598 52.4355 111.566 53.8628 109.203 54.8864C106.84 55.9099 104.223 56.4502 101.352 56.5071ZM96.5531 13.9375L97.3982 56.5854L87.8493 56.7746L87.0042 14.1268L96.5531 13.9375Z" fill="#E50914"/>
<path d="M134.68 13.6023L134.173 56.2556L124.623 56.142L125.13 13.4888L134.68 13.6023ZM151.252 31.7889L151.165 39.1712L131.713 38.9399L131.801 31.5576L151.252 31.7889ZM153.341 13.8242L153.253 21.2357L131.926 20.9822L132.014 13.5706L153.341 13.8242Z" fill="#E50914"/>
<path d="M184.526 50.5368L184.221 57.9133L162.706 57.0249L163.011 49.6484L184.526 50.5368ZM167.715 14.5391L165.956 57.1591L156.413 56.765L158.173 14.1451L167.715 14.5391Z" fill="#E50914"/>
<path d="M200.114 16.6463L197.35 59.2129L187.848 58.5959L190.612 16.0293L200.114 16.6463Z" fill="#E50914"/>
<path d="M215.895 18.3026L222.047 33.4537L230.833 19.662L241.687 20.6497L227.691 40.6158L238.142 63.1596L227.2 62.1639L220.839 46.7289L211.825 60.7647L200.854 59.7663L215.232 39.482L205.041 17.3148L215.895 18.3026Z" fill="#E50914"/>
</svg>
